<svg xmlns="http://www.w3.org/2000/svg" xmlns:xlink="http://www.w3.org/1999/xlink" viewBox="0 0 15.86 20.16"><defs><style>.cls-1{fill:none;}.cls-2{clip-path:url(#clip-path);}.cls-3{fill:#333;}.cls-4{fill:#009ade;}</style><clipPath id="clip-path" transform="translate(0 0)"><rect class="cls-1" width="15.86" height="20.16"/></clipPath></defs><title>Branch</title><g id="Layer_2" data-name="Layer 2"><g id="Layer_1-2" data-name="Layer 1"><g id="Branch"><g class="cls-2"><g class="cls-2"><path class="cls-3" d="M13.41,9.79a2.1,2.1,0,0,0-2.16,2.1,1.84,1.84,0,0,0,0,.33l-2,1.21-.14-4,2.74-1.67A2.47,2.47,0,1,0,11,6.37L9.11,7.53,9,4.33a2.24,2.24,0,0,0,1.43-2.18A2.28,2.28,0,0,0,8.26,0a2.24,2.24,0,0,0-.88,4.33L7.18,11l-2-1.31A2.4,2.4,0,0,0,4.94,8,2.64,2.64,0,0,0,2.76,6.48a2.6,2.6,0,1,0,1.5,4.59l2.86,1.81-.21,6.81a.45.45,0,0,0,.46.47h1.7a.46.46,0,0,0,.46-.47l-.15-4.37,2.78-1.7a2.11,2.11,0,0,0,1.19.36,2.09,2.09,0,0,0,2.09-2.15,2.12,2.12,0,0,0-2-2" transform="translate(0 0)"/><path class="cls-4" d="M8.19.88A1.36,1.36,0,1,0,9.55,2.24,1.36,1.36,0,0,0,8.19.88" transform="translate(0 0)"/><path class="cls-4" d="M13.32,10.68a1.24,1.24,0,1,0,1.23,1.24,1.24,1.24,0,0,0-1.23-1.24" transform="translate(0 0)"/><path class="cls-4" d="M14.08,7.1a1.45,1.45,0,1,0-1.95-.67,1.45,1.45,0,0,0,1.95.67" transform="translate(0 0)"/><path class="cls-4" d="M2.6,7.5A1.57,1.57,0,1,0,4.17,9.07,1.58,1.58,0,0,0,2.6,7.5" transform="translate(0 0)"/></g></g></g></g></g></svg>